<svg width="24" height="24" viewBox="0 0 24 24" fill="none" xmlns="http://www.w3.org/2000/svg">
<g clip-path="url(#clip0_4_2283)">
<path d="M0.75 14.8496C0.948912 14.8496 1.13968 14.9286 1.28033 15.0693C1.42098 15.2099 1.5 15.4007 1.5 15.5996V19.3496C1.5 19.7474 1.65804 20.129 1.93934 20.4103C2.22064 20.6916 2.60218 20.8496 3 20.8496H21C21.3978 20.8496 21.7794 20.6916 22.0607 20.4103C22.342 20.129 22.5 19.7474 22.5 19.3496V15.5996C22.5 15.4007 22.579 15.2099 22.7197 15.0693C22.8603 14.9286 23.0511 14.8496 23.25 14.8496C23.4489 14.8496 23.6397 14.9286 23.7803 15.0693C23.921 15.2099 24 15.4007 24 15.5996V19.3496C24 20.1453 23.6839 20.9083 23.1213 21.4709C22.5587 22.0335 21.7956 22.3496 21 22.3496H3C2.20435 22.3496 1.44129 22.0335 0.87868 21.4709C0.316071 20.9083 0 20.1453 0 19.3496V15.5996C0 15.4007 0.0790176 15.2099 0.21967 15.0693C0.360322 14.9286 0.551088 14.8496 0.75 14.8496Z" fill="#4E97FD" stroke="#4E97FD"/>
<path d="M11.469 1.71839C11.5386 1.64854 11.6214 1.59313 11.7125 1.55532C11.8036 1.51751 11.9013 1.49805 12 1.49805C12.0986 1.49805 12.1963 1.51751 12.2874 1.55532C12.3785 1.59313 12.4613 1.64854 12.531 1.71839L17.031 6.21839C17.1718 6.35922 17.2509 6.55022 17.2509 6.74939C17.2509 6.94855 17.1718 7.13956 17.031 7.28039C16.8901 7.42122 16.6991 7.50033 16.5 7.50033C16.3008 7.50034 16.1098 7.42122 15.969 7.28039L12.75 4.05989V17.2494C12.75 17.4483 12.671 17.6391 12.5303 17.7797C12.3896 17.9204 12.1989 17.9994 12 17.9994C11.8011 17.9994 11.6103 17.9204 11.4696 17.7797C11.329 17.6391 11.25 17.4483 11.25 17.2494V4.05989L8.03097 7.28039C7.96124 7.35012 7.87846 7.40543 7.78735 7.44317C7.69624 7.48091 7.59859 7.50033 7.49997 7.50033C7.40136 7.50034 7.3037 7.48091 7.2126 7.44317C7.12149 7.40543 7.0387 7.35012 6.96897 7.28039C6.89924 7.21066 6.84392 7.12787 6.80619 7.03676C6.76845 6.94565 6.74902 6.848 6.74902 6.74939C6.74902 6.65077 6.76845 6.55312 6.80619 6.46201C6.84392 6.3709 6.89924 6.28812 6.96897 6.21839L11.469 1.71839Z" fill="#4E97FD" stroke="#4E97FD"/>
</g>
<defs>
<clipPath id="clip0_4_2283">
<rect width="24" height="24" fill="white"/>
</clipPath>
</defs>
</svg>
